<svg width="20" height="20" viewBox="0 0 20 20" fill="none" xmlns="http://www.w3.org/2000/svg">
<mask id="mask0_4407_31554" style="mask-type:alpha" maskUnits="userSpaceOnUse" x="0" y="0" width="20" height="20">
<rect width="20" height="20" fill="#D9D9D9"/>
</mask>
<g mask="url(#mask0_4407_31554)">
<path d="M13.2037 9.87349L10.1429 6.81261C10.0649 6.73462 10.0099 6.65201 9.9778 6.56476C9.94576 6.47751 9.92974 6.38403 9.92974 6.28432C9.92974 6.1846 9.94576 6.09147 9.9778 6.00492C10.0099 5.9184 10.0649 5.83613 10.1429 5.75813L13.2037 2.69728C13.2817 2.61929 13.3643 2.56427 13.4516 2.53222C13.5388 2.50016 13.6323 2.48413 13.732 2.48413C13.8318 2.48413 13.9249 2.50016 14.0114 2.53222C14.098 2.56427 14.1802 2.61929 14.2582 2.69728L17.3191 5.75813C17.3971 5.83613 17.4521 5.91876 17.4841 6.00601C17.5162 6.09326 17.5322 6.18674 17.5322 6.28644C17.5322 6.38617 17.5162 6.47929 17.4841 6.56582C17.4521 6.65236 17.3971 6.73462 17.3191 6.81261L14.2582 9.87349C14.1802 9.95147 14.0976 10.0065 14.0104 10.0385C13.9231 10.0706 13.8296 10.0866 13.7299 10.0866C13.6302 10.0866 13.5371 10.0706 13.4505 10.0385C13.364 10.0065 13.2817 9.95147 13.2037 9.87349ZM3.17334 8.25332V3.92644C3.17334 3.71303 3.24552 3.53414 3.38988 3.38978C3.53424 3.24542 3.71313 3.17324 3.92655 3.17324H8.25342C8.46683 3.17324 8.64571 3.24542 8.79007 3.38978C8.93443 3.53414 9.00661 3.71303 9.00661 3.92644V8.25332C9.00661 8.46672 8.93443 8.6456 8.79007 8.78997C8.64571 8.93433 8.46683 9.00651 8.25342 9.00651H3.92655C3.71313 9.00651 3.53424 8.93433 3.38988 8.78997C3.24552 8.6456 3.17334 8.46672 3.17334 8.25332ZM10.9938 16.0738V11.7469C10.9938 11.5335 11.066 11.3546 11.2104 11.2103C11.3547 11.0659 11.5336 10.9937 11.747 10.9937H16.0739C16.2873 10.9937 16.4662 11.0659 16.6105 11.2103C16.7549 11.3546 16.8271 11.5335 16.8271 11.7469V16.0738C16.8271 16.2872 16.7549 16.4661 16.6105 16.6104C16.4662 16.7548 16.2873 16.827 16.0739 16.827H11.747C11.5336 16.827 11.3547 16.7548 11.2104 16.6104C11.066 16.4661 10.9938 16.2872 10.9938 16.0738ZM3.17334 16.0738V11.7469C3.17334 11.5335 3.24552 11.3546 3.38988 11.2103C3.53424 11.0659 3.71313 10.9937 3.92655 10.9937H8.25342C8.46683 10.9937 8.64571 11.0659 8.79007 11.2103C8.93443 11.3546 9.00661 11.5335 9.00661 11.7469V16.0738C9.00661 16.2872 8.93443 16.4661 8.79007 16.6104C8.64571 16.7548 8.46683 16.827 8.25342 16.827H3.92655C3.71313 16.827 3.53424 16.7548 3.38988 16.6104C3.24552 16.4661 3.17334 16.2872 3.17334 16.0738Z" fill="white"/>
</g>
</svg>
