<svg width="20" height="20" viewBox="0 0 20 20" fill="none" xmlns="http://www.w3.org/2000/svg">
<mask id="mask0_4056_1169" style="mask-type:alpha" maskUnits="userSpaceOnUse" x="0" y="0" width="20" height="20">
<rect width="20" height="20" fill="#C4C4C4"/>
</mask>
<g mask="url(#mask0_4056_1169)">
<path d="M5.86952 12.1531C5.78084 12.0644 5.7365 11.9661 5.7365 11.8582C5.7365 11.7503 5.78084 11.652 5.86952 11.5633L9.52658 7.90626C9.59922 7.83361 9.67347 7.7826 9.74933 7.75322C9.82518 7.72383 9.90798 7.70914 9.99773 7.70914C10.0875 7.70914 10.1703 7.72383 10.2461 7.75322C10.322 7.7826 10.3962 7.83361 10.4689 7.90626L14.1468 11.5841C14.2248 11.6621 14.2637 11.7535 14.2637 11.8582C14.2637 11.9629 14.2178 12.0612 14.1259 12.1531C14.0373 12.2417 13.939 12.2861 13.8311 12.2861C13.7232 12.2861 13.6249 12.2417 13.5362 12.1531L9.99773 8.6146L6.43843 12.1739C6.36045 12.2519 6.2691 12.2909 6.16439 12.2909C6.05968 12.2909 5.96139 12.2449 5.86952 12.1531Z" fill="#131316"/>
</g>
</svg>
