<svg width="20" height="20" viewBox="0 0 20 20" fill="none" xmlns="http://www.w3.org/2000/svg">
<mask id="mask0_4213_27583" style="mask-type:alpha" maskUnits="userSpaceOnUse" x="0" y="0" width="20" height="20">
<rect width="20" height="20" fill="#D9D9D9"/>
</mask>
<g mask="url(#mask0_4213_27583)">
<path d="M13.5837 9.6875C13.5003 9.6875 13.4206 9.67361 13.3445 9.64583C13.2678 9.61806 13.1948 9.56944 13.1253 9.5L10.542 6.91667C10.4587 6.84722 10.4031 6.77417 10.3753 6.6975C10.3475 6.62139 10.3337 6.53472 10.3337 6.4375C10.3337 6.35417 10.3475 6.27444 10.3753 6.19833C10.4031 6.12167 10.4587 6.04861 10.542 5.97917L13.1253 3.39583C13.1948 3.32639 13.2678 3.27417 13.3445 3.23917C13.4206 3.20472 13.5003 3.1875 13.5837 3.1875C13.6809 3.1875 13.7678 3.20472 13.8445 3.23917C13.9206 3.27417 13.9934 3.32639 14.0628 3.39583L16.6462 5.97917C16.7156 6.04861 16.7642 6.12167 16.792 6.19833C16.8198 6.27444 16.8337 6.35417 16.8337 6.4375C16.8337 6.53472 16.8198 6.62139 16.792 6.6975C16.7642 6.77417 16.7156 6.84722 16.6462 6.91667L14.0628 9.5C13.9934 9.56944 13.917 9.61806 13.8337 9.64583C13.7503 9.67361 13.667 9.6875 13.5837 9.6875ZM4.52116 8.85417C4.32671 8.85417 4.16699 8.78806 4.04199 8.65583C3.91699 8.52417 3.85449 8.36111 3.85449 8.16667V4.52083C3.85449 4.32639 3.91699 4.16667 4.04199 4.04167C4.16699 3.91667 4.32671 3.85417 4.52116 3.85417H8.16699C8.36144 3.85417 8.52449 3.91667 8.65616 4.04167C8.78838 4.16667 8.85449 4.32639 8.85449 4.52083V8.16667C8.85449 8.36111 8.78838 8.52417 8.65616 8.65583C8.52449 8.78806 8.36144 8.85417 8.16699 8.85417H4.52116ZM11.8337 16.1458C11.6392 16.1458 11.4762 16.0833 11.3445 15.9583C11.2123 15.8333 11.1462 15.6736 11.1462 15.4792V11.8333C11.1462 11.6389 11.2123 11.4758 11.3445 11.3442C11.4762 11.2119 11.6392 11.1458 11.8337 11.1458H15.4795C15.6739 11.1458 15.8337 11.2119 15.9587 11.3442C16.0837 11.4758 16.1462 11.6389 16.1462 11.8333V15.4792C16.1462 15.6736 16.0837 15.8333 15.9587 15.9583C15.8337 16.0833 15.6739 16.1458 15.4795 16.1458H11.8337ZM4.52116 16.1458C4.32671 16.1458 4.16699 16.0833 4.04199 15.9583C3.91699 15.8333 3.85449 15.6736 3.85449 15.4792V11.8333C3.85449 11.6389 3.91699 11.4758 4.04199 11.3442C4.16699 11.2119 4.32671 11.1458 4.52116 11.1458H8.16699C8.36144 11.1458 8.52449 11.2119 8.65616 11.3442C8.78838 11.4758 8.85449 11.6389 8.85449 11.8333V15.4792C8.85449 15.6736 8.78838 15.8333 8.65616 15.9583C8.52449 16.0833 8.36144 16.1458 8.16699 16.1458H4.52116ZM4.68783 8.02083H8.02116V4.6875H4.68783V8.02083ZM13.6045 8.8125L15.9587 6.45833L13.6045 4.10417L11.2503 6.45833L13.6045 8.8125ZM11.9795 15.3125H15.3128V11.9792H11.9795V15.3125ZM4.68783 15.3125H8.02116V11.9792H4.68783V15.3125Z" fill="#131316"/>
</g>
</svg>
