<svg width="34" height="34" fill="none" xmlns="http://www.w3.org/2000/svg"><path d="M27.416 31.11H13.113c-.815 0-1.476-.66-1.476-1.475V9.403c0-.815.66-1.475 1.476-1.475h14.303c.815 0 1.475.66 1.475 1.475V29.65c0 .801-.66 1.461-1.475 1.461Z" fill="url(#invoicing_icon_svg__a)"></path><path d="M24.423 23.566 6.72 30.267a1.308 1.308 0 0 1-1.77-1.222V4.177c0-.717.59-1.307 1.306-1.307h17.703c.717 0 1.307.59 1.307 1.307v18.166c0 .534-.337 1.026-.843 1.223Z" fill="url(#invoicing_icon_svg__b)"></path><defs><linearGradient id="invoicing_icon_svg__a" x1="11.641" y1="19.522" x2="28.888" y2="19.522" gradientUnits="userSpaceOnUse"><stop stop-color="#FCFF1C"></stop><stop offset="1" stop-color="#FF9D0A"></stop></linearGradient><linearGradient id="invoicing_icon_svg__b" x1="4.952" y1="16.608" x2="25.262" y2="16.608" gradientUnits="userSpaceOnUse"><stop stop-color="#03FFE5"></stop><stop offset="1" stop-color="#14B348"></stop></linearGradient></defs></svg>