<svg width="24" height="24" viewBox="0 0 24 24" fill="none" xmlns="http://www.w3.org/2000/svg">
<path d="M20.5202 6.64998V21.05C20.5202 21.63 20.0502 22.1 19.4702 22.1H9.29023C8.71023 22.1 8.24023 21.63 8.24023 21.05V20.16L17.3402 16.72C17.7002 16.58 17.9402 16.24 17.9402 15.85V5.59998H19.4702C20.0502 5.59998 20.5202 6.06998 20.5202 6.64998Z" fill="url(#paint0_linear_4278_15265)"/>
<path d="M17.9402 5.59998V15.86C17.9402 16.25 17.7002 16.59 17.3402 16.73L8.24023 20.17V6.64998C8.24023 6.06998 8.71023 5.59998 9.29023 5.59998H17.9402Z" fill="url(#paint1_linear_4278_15265)"/>
<path d="M17.9405 2.92999V5.59999H9.29047C8.71047 5.59999 8.24047 6.06999 8.24047 6.64999V20.17L4.74047 21.49C4.13047 21.72 3.48047 21.27 3.48047 20.62V2.91999C3.48047 2.40999 3.90047 1.98999 4.41047 1.98999H17.0105C17.5205 1.99999 17.9405 2.41999 17.9405 2.92999Z" fill="url(#paint2_linear_4278_15265)"/>
<defs>
<linearGradient id="paint0_linear_4278_15265" x1="8.2422" y1="13.8522" x2="20.5182" y2="13.8522" gradientUnits="userSpaceOnUse">
<stop stop-color="#FCFF1C"/>
<stop offset="1" stop-color="#FF9D0A"/>
</linearGradient>
<linearGradient id="paint1_linear_4278_15265" x1="8.2422" y1="12.8857" x2="17.9372" y2="12.8857" gradientUnits="userSpaceOnUse">
<stop stop-color="#FFDDCD"/>
<stop offset="1" stop-color="#FF5403"/>
</linearGradient>
<linearGradient id="paint2_linear_4278_15265" x1="3.48248" y1="11.7778" x2="17.9375" y2="11.7778" gradientUnits="userSpaceOnUse">
<stop stop-color="#E7CFFF"/>
<stop offset="1" stop-color="#870FFF"/>
</linearGradient>
</defs>
</svg>
