<svg width="20" height="20" viewBox="0 0 20 20" fill="none" xmlns="http://www.w3.org/2000/svg">
<g clip-path="url(#clip0_4213_38151)">
<path d="M16.192 10.8167C16.2254 10.5501 16.2504 10.2834 16.2504 10.0001C16.2504 9.71675 16.2254 9.45008 16.192 9.18342L17.9504 7.80841C18.1087 7.68341 18.1504 7.45841 18.0504 7.27508L16.3837 4.39175C16.3087 4.25841 16.167 4.18341 16.017 4.18341C15.967 4.18341 15.917 4.19175 15.8754 4.20842L13.8004 5.04175C13.367 4.70842 12.9004 4.43341 12.392 4.22508L12.0754 2.01675C12.0504 1.81675 11.8754 1.66675 11.667 1.66675H8.33369C8.12535 1.66675 7.95035 1.81675 7.92535 2.01675L7.60869 4.22508C7.10035 4.43341 6.63369 4.71675 6.20035 5.04175L4.12535 4.20842C4.07535 4.19175 4.02535 4.18341 3.97535 4.18341C3.83369 4.18341 3.69202 4.25841 3.61702 4.39175L1.95035 7.27508C1.84202 7.45841 1.89202 7.68341 2.05035 7.80841L3.80869 9.18342C3.77535 9.45008 3.75035 9.72508 3.75035 10.0001C3.75035 10.2751 3.77535 10.5501 3.80869 10.8167L2.05035 12.1917C1.89202 12.3167 1.85035 12.5417 1.95035 12.7251L3.61702 15.6084C3.69202 15.7417 3.83369 15.8167 3.98369 15.8167C4.03369 15.8167 4.08369 15.8084 4.12535 15.7917L6.20035 14.9584C6.63369 15.2917 7.10035 15.5667 7.60869 15.7751L7.92535 17.9834C7.95035 18.1834 8.12535 18.3334 8.33369 18.3334H11.667C11.8754 18.3334 12.0504 18.1834 12.0754 17.9834L12.392 15.7751C12.9004 15.5667 13.367 15.2834 13.8004 14.9584L15.8754 15.7917C15.9254 15.8084 15.9754 15.8167 16.0254 15.8167C16.167 15.8167 16.3087 15.7417 16.3837 15.6084L18.0504 12.7251C18.1504 12.5417 18.1087 12.3167 17.9504 12.1917L16.192 10.8167ZM14.542 9.39175C14.5754 9.65008 14.5837 9.82508 14.5837 10.0001C14.5837 10.1751 14.567 10.3584 14.542 10.6084L14.4254 11.5501L15.167 12.1334L16.067 12.8334L15.4837 13.8417L14.4254 13.4167L13.5587 13.0667L12.8087 13.6334C12.4504 13.9001 12.1087 14.1001 11.767 14.2417L10.8837 14.6001L10.7504 15.5417L10.5837 16.6667H9.41702L9.25869 15.5417L9.12535 14.6001L8.24202 14.2417C7.88369 14.0917 7.55035 13.9001 7.21702 13.6501L6.45869 13.0667L5.57535 13.4251L4.51702 13.8501L3.93369 12.8417L4.83369 12.1417L5.57535 11.5584L5.45869 10.6167C5.43369 10.3584 5.41702 10.1667 5.41702 10.0001C5.41702 9.83342 5.43369 9.64175 5.45869 9.39175L5.57535 8.45008L4.83369 7.86675L3.93369 7.16675L4.51702 6.15841L5.57535 6.58342L6.44202 6.93341L7.19202 6.36675C7.55035 6.10008 7.89202 5.90008 8.23369 5.75841L9.11702 5.40008L9.25035 4.45841L9.41702 3.33341H10.5754L10.7337 4.45841L10.867 5.40008L11.7504 5.75841C12.1087 5.90841 12.442 6.10008 12.7754 6.35008L13.5337 6.93341L14.417 6.57508L15.4754 6.15008L16.0587 7.15842L15.167 7.86675L14.4254 8.45008L14.542 9.39175ZM10.0004 6.66675C8.15869 6.66675 6.66702 8.15841 6.66702 10.0001C6.66702 11.8417 8.15869 13.3334 10.0004 13.3334C11.842 13.3334 13.3337 11.8417 13.3337 10.0001C13.3337 8.15841 11.842 6.66675 10.0004 6.66675ZM10.0004 11.6667C9.08369 11.6667 8.33369 10.9167 8.33369 10.0001C8.33369 9.08342 9.08369 8.33342 10.0004 8.33342C10.917 8.33342 11.667 9.08342 11.667 10.0001C11.667 10.9167 10.917 11.6667 10.0004 11.6667Z" fill="#31373D"/>
</g>
<defs>
<clipPath id="clip0_4213_38151">
<rect width="20" height="20" fill="white"/>
</clipPath>
</defs>
</svg>
